<svg height="19" width="19" viewBox="0 0 24 24" xmlns="http://www.w3.org/2000/svg" aria-labelledby="MyadsTitleID" style="fill: rgb(74, 74, 74); stroke: rgb(74, 74, 74); stroke-width: 0;"><title id="MyadsTitleID">Myads Icon</title><path d="M14.4 20.999H4.9a1.837 1.837 0 01-1.899-1.9V9.6a1.837 1.837 0 011.9-1.9h3.8V3.9a1.837 1.837 0 011.9-1.899h9.498a1.837 1.837 0 011.9 1.9V13.4a1.838 1.838 0 01-1.9 1.9h-3.8v3.8a1.838 1.838 0 01-1.9 1.899zM4.9 9.6v9.5h9.5v-3.8h-3.8a1.838 1.838 0 01-1.9-1.9V9.6H4.9zm5.7-5.7v9.5h9.5V3.9h-9.5z"></path></svg>