<svg height="19" width="19" viewBox="0 0 24 24" xmlns="http://www.w3.org/2000/svg" aria-labelledby="AutoNeufTitleID" style="fill: rgb(45, 45, 45); stroke: rgb(45, 45, 45); stroke-width: 0;"><title id="AutoNeufTitleID">AutoNeuf Icon</title><path d="M20.968 10.533c.202 0 .366.165.366.367v.375c0 .581-.679.725-1.185.725l-.796-1.467h1.614zm-1.057 2.571c.468.87.694 1.652.694 2.689 0 1.005-.292 1.857-.738 2.92v1.354a.734.734 0 01-.733.733h-1.1a.734.734 0 01-.733-.733v-.734H7.767v.734a.734.734 0 01-.733.733h-1.1a.734.734 0 01-.733-.733v-1.355c-.446-1.062-.737-1.915-.737-2.92 0-1.036.225-1.818.694-2.688.607-1.127 1.357-2.532 2.148-3.851.607-1.014.926-1.252 1.67-1.385 1.124-.202 2.14-.268 3.558-.268 1.418 0 2.434.066 3.557.268.746.133 1.064.371 1.671 1.385.791 1.32 1.54 2.724 2.149 3.851zM8.134 15.3a1.1 1.1 0 10-2.2 0 1.1 1.1 0 002.2 0zm7.333.733a.367.367 0 00-.366-.366H9.967a.367.367 0 000 .733h5.134a.367.367 0 00.366-.367zm2.157-4.053s-.543-1.339-1.196-2.304a.98.98 0 00-.637-.415c-1.108-.2-2.08-.263-3.257-.263-1.178 0-2.149.064-3.257.263a.975.975 0 00-.637.415c-.653.964-1.196 2.304-1.196 2.304 1.203.23 3.16.365 5.09.365 1.93 0 3.888-.135 5.09-.365zm1.51 3.32a1.1 1.1 0 10-2.2 0 1.1 1.1 0 002.2 0zM5.716 10.533H4.1a.367.367 0 00-.367.367v.375c0 .581.68.725 1.185.725l.797-1.467zm.646-7.394a2.298 2.298 0 011.527 1.528 2.302 2.302 0 011.528-1.528A2.302 2.302 0 017.89 1.61a2.297 2.297 0 01-1.528 1.53zM8.5 5.277c.44.134.783.478.917.917a1.38 1.38 0 01.917-.916 1.382 1.382 0 01-.917-.917 1.378 1.378 0 01-.917.916zM6.667 6.958c.366.112.653.398.764.764a1.15 1.15 0 01.764-.764 1.151 1.151 0 01-.764-.764 1.148 1.148 0 01-.764.764zm-1.833-3.82A2.759 2.759 0 013 4.974a2.763 2.763 0 011.835 1.834 2.763 2.763 0 011.832-1.835A2.763 2.763 0 014.834 3.14z"></path></svg>