<svg height="32" width="32" viewBox="0 0 24 24" xmlns="http://www.w3.org/2000/svg"
    aria-labelledby="AutreTitleID"
    style="fill: rgb(155, 155, 155); stroke: rgb(155, 155, 155); stroke-width: 0;">
    <title id="AutreTitleID">Autre Icon</title>
    <g clip-path="url(#a)">
        <path
            d="M23.722 20.905L21.39 18.41a5.442 5.442 0 00.823-2.903c0-1.394-.508-2.705-1.43-3.69a4.952 4.952 0 00-1.034-.846v-.27h2.374a.958.958 0 00.859-.512 1.1 1.1 0 00-.023-1.05l-3.354-6.1c-.224-.406-.67-.68-1.111-.68H4.61c-.441 0-.888.274-1.111.68L.145 9.14a1.1 1.1 0 00-.022 1.05.955.955 0 00.858.513h2.375v4.72c0 .608.426 1.225.97 1.404l6.368 2.087c.232.076.537.118.858.118.322 0 .626-.042.859-.118l.982-.322c.146.213.308.416.488.608.922.986 2.147 1.53 3.451 1.53.981 0 1.918-.308 2.715-.88l2.331 2.493a.917.917 0 00.672.297.919.919 0 00.672-.297 1.067 1.067 0 000-1.437zM8.084 9.11H1.963l2.836-5.157h6.122L8.084 9.11zm4.114-5.149h6.103l2.827 5.14h-6.103l-2.827-5.14zm2.834 14.007c-1.268-1.356-1.268-3.563 0-4.92a3.129 3.129 0 012.3-1.018c.869 0 1.685.362 2.3 1.019a3.58 3.58 0 01.952 2.46 3.58 3.58 0 01-.952 2.459 3.128 3.128 0 01-2.3 1.018 3.129 3.129 0 01-2.3-1.018z"></path>
    </g>
    <defs>
        <clipPath id="a">
            <path fill="#fff" d="M0 0h24v21H0z" transform="translate(0 2)"></path>
        </clipPath>
    </defs>
</svg>