<svg height="24" width="24" viewBox="0 0 24 24" xmlns="http://www.w3.org/2000/svg"
    aria-labelledby="AllCategoriesTitleID"
    style="fill: currentcolor; stroke: currentcolor; stroke-width: 0;">
    <title id="AllCategoriesTitleID">AllCategories Icon</title>
    <g clip-path="url(#a)">
        <path fill="#00C160"
            d="M9.047 10.475H1.353C.613 10.475.01 9.87.01 9.123v-7.76C.01.617.61.011 1.352.011h7.694c.74 0 1.34.605 1.34 1.352v7.76c0 .747-.6 1.352-1.34 1.352z"></path>
        <path fill="#009AFA"
            d="M22.447 10.475h-7.694c-.74 0-1.341-.605-1.341-1.353v-7.76c0-.746.6-1.352 1.34-1.352h7.695c.74 0 1.341.605 1.341 1.353v7.76a1.348 1.348 0 01-1.341 1.352z"></path>
        <path fill="#FF4353"
            d="M9.045 23.99H1.351c-.74 0-1.341-.605-1.341-1.353v-7.76c0-.745.6-1.352 1.341-1.352h7.694c.74 0 1.341.605 1.341 1.353v7.76c0 .747-.6 1.352-1.34 1.352z"></path>
        <g clip-path="url(#b)">
            <path fill="#2D2D2D"
                d="M23.5 18.417a.667.667 0 00-.667-.667h-2.416a.667.667 0 01-.667-.667v-2.416a.667.667 0 00-.667-.667h-1.166a.667.667 0 00-.667.667v2.416a.667.667 0 01-.667.667h-2.416a.667.667 0 00-.667.667v1.166c0 .369.298.667.666.667h2.417c.368 0 .667.299.667.667v2.416c0 .369.298.667.666.667h1.167a.667.667 0 00.667-.667v-2.416c0-.369.298-.667.666-.667h2.417a.667.667 0 00.667-.667v-1.166z"></path>
        </g>
    </g>
    <defs>
        <clipPath id="a">
            <path fill="#fff" d="M0 0h24v24H0z"></path>
        </clipPath>
        <clipPath id="b">
            <path fill="#fff" d="M0 0h11v11H0z" transform="translate(13.5 13)"></path>
        </clipPath>
    </defs>
</svg>