<svg height="19" width="19" viewBox="0 0 24 24" xmlns="http://www.w3.org/2000/svg" aria-labelledby="CartLineTitleID" style="fill: rgb(74, 74, 74); stroke: rgb(74, 74, 74); stroke-width: 0;"><title id="CartLineTitleID">CartLine Icon</title><path fill-rule="evenodd" d="M2 3a1 1 0 011-1h.768a2 2 0 011.966 1.637L5.986 5h13.757a2 2 0 011.949 2.45l-1.846 8a2 2 0 01-1.95 1.55H7a1 1 0 01-.983-.819l-1.843-9.98a.994.994 0 01-.007-.037L3.767 4H3a1 1 0 01-1-1zm4.355 4l1.477 8h10.065l1.846-8H6.355zM6 20a2 2 0 114 0 2 2 0 01-4 0zm10 0a2 2 0 114 0 2 2 0 01-4 0z" clip-rule="evenodd"></path></svg>