<svg height="24" width="24" viewBox="0 0 24 24" xmlns="http://www.w3.org/2000/svg" aria-labelledby="EmailTitleID" style="fill: rgb(155, 155, 155); stroke: rgb(155, 155, 155); stroke-width: 0;"><title id="EmailTitleID">Email Icon</title><path d="M18.4 6c.88 0 1.6.72 1.6 1.6v9.6c0 .88-.72 1.6-1.6 1.6H5.6c-.88 0-1.6-.72-1.6-1.6l.008-9.6c0-.88.712-1.6 1.592-1.6h12.8zm-.8 11.2c.44 0 .8-.36.8-.8V9.2l-5.552 3.472a1.585 1.585 0 01-1.696 0L5.6 9.2v7.2c0 .44.36.8.8.8h11.2zM12 11.6l6.4-4H5.6l6.4 4z"></path></svg>