<svg height="32" width="32" viewBox="0 0 24 24" xmlns="http://www.w3.org/2000/svg"
    aria-labelledby="BriefcaseTitleID"
    style="fill: rgb(53, 181, 164); stroke: rgb(53, 181, 164); stroke-width: 0;">
    <title id="BriefcaseTitleID">Briefcase Icon</title>
    <path
        d="M22.357 18.639V11.15a3.866 3.866 0 01-2.016.947c-.628.089-1.277.054-1.912.054h-4.49c-.017 0-.034 0-.05-.002v.268c0 .032.002.062 0 .094-.01.175-.15.305-.34.313-.335.015-.675 0-1.012 0H10.9c-.143 0-.286.003-.43 0-.213-.004-.36-.136-.363-.334-.002-.112-.002-.227-.002-.339-.014.002-.03.002-.044.002h-.03c-.638.009-1.278 0-1.916 0H5.27c-.703 0-1.423.041-2.103-.16a4.33 4.33 0 01-.82-.338 3.546 3.546 0 01-.703-.494v8.16c0 .061-.002.122.002.182.047.57.551 1.01 1.172 1.018.152.003.302 0 .455 0h17.883c.684-.002 1.2-.498 1.202-1.122v-.761zM22.35 7.813V7.07c-.044-.565-.545-1.01-1.169-1.018h-5.149V4.44c0-.328-.1-.639-.359-.876-.241-.225-.567-.328-.907-.33H9.36c-.058 0-.117-.003-.173 0-.673.013-1.202.502-1.219 1.122-.014.563-.007 1.13-.002 1.696H2.85c-.314 0-.607.099-.84.298-.224.194-.344.46-.363.738v1.497c0 .065 0 .127.005.192.002.045.007.089.012.134l.002.02c.012.062.021.125.035.185a3.006 3.006 0 00.15.453l.005.01a3.818 3.818 0 00.157.278c.045.07.091.14.143.204.021.028.045.052.063.08l-.007-.013.012.015a3.555 3.555 0 00.436.401c.005.005.012.01.019.013l.058.035-.03-.017c.049.03.096.064.145.095.131.077.267.146.408.207.136.039.063.023.019.008.004.002.007.002.011.005.04.013.078.028.118.038.075.024.15.046.225.065.082.02.164.037.248.052l.084.013.047.004c.209.018.42.013.628.013h5.426c.017 0 .033 0 .05.002v-.52c0-.15-.024-.313.11-.425.114-.097.264-.082.407-.082h2.923c.183.009.312.125.335.287a.099.099 0 01.003.026v.717c.016-.003.032-.003.049-.003h.03c.621-.01 1.242 0 1.861 0h3.863c.1 0 .199-.004.3-.012l.058-.007.073-.01c.082-.016.166-.031.248-.053a3.03 3.03 0 00.242-.069l.11-.039a3.495 3.495 0 00.612-.334l.002-.002c.002-.002.007-.004.007-.007.033-.023.063-.05.094-.073a2.946 2.946 0 00.342-.328c.002-.004.007-.006.01-.01.018-.029.044-.057.065-.083a2.12 2.12 0 00.124-.179c.007-.013.017-.026.024-.036.035-.059.07-.117.1-.177l.045-.087c.058-.142.11-.287.145-.438.012-.047.021-.097.03-.144v-.011c0-.002 0-.004.003-.007a.967.967 0 01.01-.067c.004-.038.006-.08.009-.118l.007-.188v-.427a9.529 9.529 0 01-.007-.358zm-7.483-3.449c0 .002 0 .005.002.005v.002c.003.01.005.017 0 .006-.002.002-.006-.002-.009-.006.012.56.007 1.122.003 1.683H9.137V4.373c-.007.009-.012.01-.014.009-.005.006-.005-.007-.003-.022-.011.013-.018.015 0-.004 0-.009.003-.015.005-.024h-.002.002c.002-.004.002-.01.005-.015-.017 0-.012-.004.002-.007.002-.01.007-.015.007-.002l.016-.002v-.004.002l.026-.004c.01-.01.014-.011.017-.013l-.014.013c.018-.003.032-.003.025.002.003.002 0 .006-.009.013h5.402c.07 0 .139-.002.209 0-.005-.002-.007-.002-.01-.005-.016-.008-.011-.01 0-.013-.007-.004-.004-.004.003 0h.01a.303.303 0 00.002 0c.009 0 .018.003.028.003l.011.002c0-.005 0-.007.003-.007 0 0 .002.002.002.007.021.004.03.008 0 .01v.011l.014.005c-.002 0-.01 0-.014-.003v.003l.012.008-.01-.004c0 .004.003.006.003.01a.107.107 0 00.023.022l-.02-.015v.015z"></path>
</svg>