<svg height="19" width="19" viewBox="0 0 24 24" xmlns="http://www.w3.org/2000/svg" aria-labelledby="HeartOutlineTitleID" style="fill: rgb(74, 74, 74); stroke: rgb(74, 74, 74); stroke-width: 0;"><title id="HeartOutlineTitleID">HeartOutline Icon</title><path fill-rule="evenodd" d="M2.405 12.33c-1.231-3.824.407-7.833 4.078-9.015a6.562 6.562 0 015.25.541l.263.158.268-.159a6.571 6.571 0 014.982-.619l.266.08c3.673 1.182 5.317 5.192 4.082 9.03a12.42 12.42 0 01-2.977 4.736 34.695 34.695 0 01-5.995 4.665l-.23.143a.732.732 0 01-.762.006l-.245-.147a34.717 34.717 0 01-6.005-4.673 12.427 12.427 0 01-2.975-4.747zm9.194-6.363l-.185-.132a4.784 4.784 0 00-4.162-.606c-2.664.856-3.872 3.808-2.94 6.696a10.232 10.232 0 002.448 3.899A31.118 31.118 0 0012.135 20L12 19.916l.438-.275a31.11 31.11 0 004.304-3.342l.495-.47a10.226 10.226 0 002.45-3.889c.934-2.9-.279-5.854-2.944-6.71a4.793 4.793 0 00-4.336.728.686.686 0 01-.81.009z" clip-rule="evenodd"></path></svg>