<svg height="32" width="32" viewBox="0 0 24 24" xmlns="http://www.w3.org/2000/svg"
    aria-labelledby="HouseTitleID"
    style="fill: rgb(58, 164, 255); stroke: rgb(58, 164, 255); stroke-width: 0;">
    <title id="HouseTitleID">House Icon</title>
    <path d="M1 12V9l11-8 11 8v3h-1.5L12 4.5 2 12H1zm7.5 11v-9.5H15l.5 9.5h-7z"></path>
    <path fill-rule="evenodd"
        d="M12.836.285a1.37 1.37 0 00-1.672 0L.432 8.475A1.113 1.113 0 000 9.358v2.553c0 .606.474 1.098 1.059 1.098h.554v9.89c0 .608.474 1.1 1.06 1.1h18.655c.584 0 1.058-.492 1.058-1.1v-9.89h.555c.585 0 1.059-.492 1.059-1.098V9.359c0-.35-.16-.678-.432-.885L12.836.284zm2.025 22.25H9.139v-8.792h5.722v8.792zM12 1.465l10.588 8.08v2h-.817l-9.338-7.538-.425-.343-.432.335-9.694 7.546h-.47v-2L12 1.465zM3.025 12.487l8.967-6.98 8.983 7.251v9.777h-4.703v-9.158c0-.607-.474-1.1-1.058-1.1H8.785c-.584 0-1.059.493-1.059 1.1v9.158H3.025V12.487zm11.137 4.797a.735.735 0 00-.72-.748.735.735 0 00-.722.748v1.495c0 .414.323.748.721.748.398 0 .72-.334.72-.748v-1.495z"
        clip-rule="evenodd"></path>
    <rect width="1" height="2" fill="#EBF5FF" rx=".5"></rect>
</svg>