<svg height="19" width="19" viewBox="0 0 24 24" xmlns="http://www.w3.org/2000/svg" aria-labelledby="AvitoIconTitleID" style="fill: rgb(255, 255, 255); stroke: rgb(255, 255, 255); stroke-width: 0;"><title id="AvitoIconTitleID">AvitoIcon Icon</title><path d="M14.4 6.3l4.4-1.4c.1 0 .3-.2.3-.3 0-.1-.1-.3-.2-.3h-.1l-4.5-1.5-1.9-.6c-.2 0-.3-.1-.5-.1h-.3c-.2 0-.4 0-.6.1l-2.1.6-4 1.4h-.1c-.1 0-.2.2-.2.3 0 .1.1.2.2.3h.1l4 1.4 2.2.8h.5c.2 0 .5 0 .7-.1l.3-.1 1.8-.5zm6.7.6c-.4-.3-.6-.4-1-.4-.2 0-.4 0-.6.1l-5.6 1.7c-.9.2-1.5 1-1.5 1.9v9.4c0 .7.3 1.2.9 1.6.6.4 1.3.4 1.9.2l5.6-2.2c.8-.3 1.1-1 1.1-1.8v-9c0-.6-.3-1.1-.8-1.5M9.8 8.1L3.4 6c-.1 0-.2-.1-.4-.1-.3 0-.3.1-.6.3-.3.3-.5.7-.5 1.1v9.8c0 .6.1 1.1.6 1.3l6.4 2.9c.4.2.9.1 1.3-.1.4-.3.6-.7.6-1.1V9.4c0-.6-.4-1.1-1-1.3"></path></svg>