<svg height="24" width="24" viewBox="0 0 24 24" xmlns="http://www.w3.org/2000/svg" aria-labelledby="PhoneTitleID" style="fill: rgb(155, 155, 155); stroke: rgb(155, 155, 155); stroke-width: 0;"><title id="PhoneTitleID">Phone Icon</title><path d="M7.218 10.924a13.42 13.42 0 005.858 5.858l1.955-1.955a.892.892 0 01.907-.223c.995.33 2.062.507 3.173.507.491 0 .889.398.889.889v3.111a.889.889 0 01-.889.889C10.765 20 4 13.235 4 4.889A.889.889 0 014.889 4H8a.89.89 0 01.889.889c0 1.111.178 2.178.507 3.173a.892.892 0 01-.223.907l-1.955 1.955z"></path></svg>