<svg height="32" width="32" viewBox="0 0 24 24" xmlns="http://www.w3.org/2000/svg"
    aria-labelledby="VehiculesTitleID"
    style="fill: rgb(255, 76, 89); stroke: rgb(255, 76, 89); stroke-width: 0;">
    <title id="VehiculesTitleID">Vehicules Icon</title>
    <g clip-path="url(#a)">
        <path
            d="M22.771 7.306h-.12c-.026-.144-.141-.252-.28-.252a.268.268 0 00-.175.067c-.026-.18-.168-.318-.339-.318-.167 0-.306.132-.337.306a.319.319 0 00-.177-.055c-.19 0-.343.17-.343.377 0 .209.154.378.343.378h1.428c.127 0 .229-.113.229-.252s-.102-.251-.229-.251zm-12.674-.48l2.545.725c.209.06.432.07.65.031l6.635-1.194c.611-.11 1.204-.347 1.685-.742.539-.444.708-.828.657-1.148-.05-.32-.327-.625-.972-.856-.575-.205-1.208-.221-1.819-.111l-2.25.405-3.781-2.807a.366.366 0 00-.347-.123l-1.502.27c-.243.044-.384.303-.28.52l2.452 2.762-2.358.425-1.175-1.069a.367.367 0 00-.316-.09l-.916.165c-.239.043-.38.293-.286.508l.911 1.992c.084.173.28.283.467.337z"></path>
        <path fill-rule="evenodd"
            d="M3.373 23.352H2.249c-.31 0-.563-.29-.563-.647v-.648c-.297 0-.584-.137-.794-.38a1.402 1.402 0 01-.33-.915V15.58c-.31 0-.562-.29-.562-.647V12.99c0-.358.252-.648.562-.648v-2.59c0-1.074.755-1.943 1.687-1.943h8.994c.932 0 1.687.87 1.687 1.942v2.591c.31 0 .562.29.562.648L12 14.344c0 .358-.613 2.107-.923 2.107l1.853 4.31c0 .344-.12.674-.33.916-.21.243-.497.38-.795.38v.648c0 .357-.252.647-.562.647H10.12c-.31 0-.562-.29-.562-.647v-.648H3.935v.648c0 .357-.252.647-.562.647zM2.53 18.82c.465 0 .843.435.843.971 0 .537-.378.972-.843.972-.466 0-.844-.436-.844-.972s.378-.971.844-.971zm8.713-1.01c.466 0 1.257 1.563.562 1.981 0 .537-.377.972-.843.972-.465 0-1.462-1.357-1.462-1.893 0-.537 1.278-1.06 1.743-1.06zm-3.092 1.657h-2.81c-.156 0-.282.145-.282.324 0 .179.126.324.281.324h2.811c.155 0 .281-.145.281-.324 0-.178-.126-.324-.28-.324zm3.654-8.095c0-.18-.126-.324-.28-.324H1.967c-.156 0-.282.145-.282.324v5.505s1.742.647 5.06.647c3.318 0 4.254-1.168 4.254-1.168l.805-2.232v-2.752zm-2.81-2.267H4.496v.647h4.497v-.647z"
            clip-rule="evenodd"></path>
        <path
            d="M23.669 14.933c.183 0 .331.145.331.324v.33c0 .514-.614.641-1.07.641l-.72-1.295h1.459zm-.955 2.27c.423.769.627 1.459.627 2.375 0 .887-.264 1.64-.666 2.578v1.196a.656.656 0 01-.663.648h-.994a.656.656 0 01-.663-.648v-.647H11.74v.647a.656.656 0 01-.663.648h-.994a.656.656 0 01-.663-.648v-1.196c-.403-.938-.666-1.69-.666-2.578 0-.916.204-1.606.627-2.375.55-.995 1.227-2.236 1.942-3.401.549-.895.836-1.106 1.51-1.223 1.015-.179 1.933-.237 3.214-.237s2.2.058 3.215.236c.674.118.961.329 1.51 1.224.715 1.165 1.392 2.406 1.942 3.401zm-10.643 1.94a.983.983 0 00-.994-.972.983.983 0 00-.994.972c0 .536.445.971.994.971a.983.983 0 00.994-.971zm6.627.647a.328.328 0 00-.331-.324h-4.64a.328.328 0 00-.33.324c0 .179.148.324.33.324h4.64a.328.328 0 00.331-.324zm1.95-3.58s-.491-1.182-1.082-2.034a.887.887 0 00-.575-.367c-1.002-.176-1.88-.232-2.944-.232s-1.941.056-2.943.232a.883.883 0 00-.576.367c-.59.851-1.08 2.035-1.08 2.035 1.086.202 2.855.322 4.6.322 1.744 0 3.513-.12 4.6-.322zm1.364 2.933a.983.983 0 00-.994-.972.983.983 0 00-.994.972c0 .536.445.971.994.971a.983.983 0 00.994-.971zm-12.127-4.21H8.426a.328.328 0 00-.331.324v.33c0 .514.613.641 1.07.641l.72-1.295zM4.771 3.284h-.12c-.026-.144-.141-.251-.28-.251a.268.268 0 00-.175.066c-.026-.18-.168-.318-.339-.318-.167 0-.306.132-.337.306a.318.318 0 00-.177-.054c-.19 0-.343.168-.343.377 0 .208.153.377.343.377H4.77c.127 0 .229-.113.229-.252s-.102-.251-.229-.251zm5-1.006h-.12c-.026-.143-.141-.251-.28-.251a.268.268 0 00-.175.067c-.026-.18-.168-.318-.339-.318-.167 0-.306.131-.337.306a.318.318 0 00-.177-.055c-.19 0-.343.169-.343.377s.153.377.343.377H9.77c.127 0 .229-.112.229-.251s-.102-.252-.229-.252z"></path>
    </g>
    <defs>
        <clipPath id="a">
            <path fill="#fff" d="M0 0h24v24H0z"></path>
        </clipPath>
    </defs>
</svg>