<svg height="32" width="32" viewBox="0 0 24 24" xmlns="http://www.w3.org/2000/svg"
    aria-labelledby="AuctionTitleID"
    style="fill: rgb(155, 155, 155); stroke: rgb(155, 155, 155); stroke-width: 0;">
    <title id="AuctionTitleID">Auction Icon</title>
    <path
        d="M11.131 12.662c-.278.293-.547.574-.818.852-.243.248-.492.488-.73.737-.081.084-.127.077-.204-.002-1.879-1.891-3.76-3.78-5.64-5.671-.045-.046-.084-.099-.122-.144C5.539 6.506 7.454 4.59 9.362 2.67c.099-.098.135-.086.226.005 1.865 1.872 3.734 3.744 5.602 5.611.148.149.146.159-.008.31-.494.499-.986 1-1.495 1.517.214.22.435.456.663.686 1.83 1.843 3.66 3.686 5.488 5.53 1.102 1.11 2.204 2.217 3.3 3.328.33.334.53.723.6 1.198.12.826-.463 1.574-1.082 1.829a1.911 1.911 0 01-1.006.117c-.34-.045-.628-.22-.873-.465-1.817-1.817-3.639-3.627-5.45-5.446-1.361-1.36-2.715-2.729-4.073-4.097-.027-.033-.056-.062-.123-.132zm-8.299 8.556l-.343-.276c-.641-.53-.579-1.627.237-2.004.243-.11.538-.139.81-.139a748.26 748.26 0 017.34-.002c.462.002.898.137 1.158.576.33.557.22 1.243-.382 1.622l-.334.209c.005.02.012.036.015.058.05 0 .103-.003.156 0 .47 0 .938.012 1.406-.003.598-.021 1.109.55 1.126 1.111.019.557-.317.968-.723 1.152a1.161 1.161 0 01-.434.09c-.586.011-1.174.009-1.76.009-3.184 0-6.369-.003-9.554.002-.364 0-.676-.098-.945-.343-.427-.384-.466-1.022-.18-1.483.216-.353.523-.54.943-.54.48.002.96 0 1.44 0l.024-.039zM2.585 9.312c.062.06.113.098.158.146 1.894 1.899 3.787 3.795 5.683 5.69.108.106.113.178 0 .282a32.33 32.33 0 00-.85.78c-.378.36-1.127.29-1.492-.08-1.286-1.305-2.585-2.592-3.878-3.888a8.065 8.065 0 01-.574-.624c-.278-.338-.247-.996.043-1.334.286-.334.598-.64.91-.972zm13.67-1.836l-.905-.907c-1.622-1.627-3.242-3.257-4.87-4.88-.122-.122-.12-.184.008-.29.257-.22.511-.444.746-.684.483-.499 1.186-.403 1.616.027 1.428 1.423 2.846 2.856 4.267 4.284.233.235.357.535.353.854a1.18 1.18 0 01-.372.828c-.27.257-.55.502-.843.768z"></path>
</svg>