<svg height="24" width="24" viewBox="0 0 24 24" xmlns="http://www.w3.org/2000/svg" aria-labelledby="YoutubeTitleID" style="fill: rgb(255, 255, 255); stroke: rgb(255, 255, 255); stroke-width: 0;"><title id="YoutubeTitleID">Youtube Icon</title><path d="M19.7 8.2c-.2-.7-.7-1.2-1.4-1.4-1.3-.4-6.3-.4-6.3-.4s-5 0-6.3.3c-.6.2-1.2.8-1.4 1.5C4 9.4 4 12 4 12s0 2.6.3 3.8c.2.7.7 1.2 1.4 1.4 1.3.4 6.3.4 6.3.4s5 0 6.3-.3c.7-.2 1.2-.7 1.4-1.4.3-1.3.3-3.9.3-3.9s0-2.6-.3-3.8zm-9.3 6.2V9.6l4.2 2.4-4.2 2.4z"></path></svg>